# xmcd
#
# Track frame offsets: 
#        150
#        16627
#        33685
#        48917
#        62847
#        78661
#        94598
#        107520
#        121942
#        138474
#        153856
#        170519
#        187220
#        201606
#        217201
#        234281
#        252030
#        265837
#        281381
#        295571
#        309307
#
# Disc length: 4358 seconds
#
# Revision: 0
# Processed by: cddbd v1.5.2PL0 Copyright (c) Steve Scherf et al.
# Submitted via: ExactAudioCopy v1.1
#
DISCID=27110415
DTITLE=Christoff - De Hits
DYEAR=2017
DGENRE=Pop
TTITLE0=Sweet Caroline
TTITLE1=Omdat Ie Zo Mooi Is
TTITLE2=Een Ster (Akoestische Versie)
TTITLE3=Niemand Laat Zijn Eigen Kind Alleen (Met Willeke Alberti)
TTITLE4=Zeven Zonden
TTITLE5=Mijn Nr. 1 (Met The Sunsets)
TTITLE6=1000 Sterren Hotel
TTITLE7=Zeg Maar Niets Meer (Met André Hazes Jr.)
TTITLE8=Alles Kan Een Mens Gelukkig Maken (Met René Froger)
TTITLE9=M'n Beste Vriend
TTITLE10=Voor Jou
TTITLE11=Kom In Mijn Armen (Met Lindsay)
TTITLE12=Vaarwel
TTITLE13=Vergeven Kan, Vergeten Niet
TTITLE14=Jij Bent Mijn Hartslag
TTITLE15=Ik Ben Geboren Om Van Jou Te Houden
TTITLE16=Ogen Weer Geopend
TTITLE17=Het Leven Danst Sirtaki (KLUBBB3)
TTITLE18=Dronken Van Liefde
TTITLE19=Verdergaan
TTITLE20=Door Jou (Nieuw Geluk)
EXTD=
EXTT0=
EXTT1=
EXTT2=
EXTT3=
EXTT4=
EXTT5=
EXTT6=
EXTT7=
EXTT8=
EXTT9=
EXTT10=
EXTT11=
EXTT12=
EXTT13=
EXTT14=
EXTT15=
EXTT16=
EXTT17=
EXTT18=
EXTT19=
EXTT20=
PLAYORDER=
